<?xml version="1.0" standalone="no"?>
<!DOCTYPE svg PUBLIC "-//W3C//DTD SVG 20010904//EN"
 "http://www.w3.org/TR/2001/REC-SVG-20010904/DTD/svg10.dtd">
<svg version="1.0" xmlns="http://www.w3.org/2000/svg"
 width="512.000000pt" height="512.000000pt" viewBox="0 0 512.000000 512.000000"
 preserveAspectRatio="xMidYMid meet">

<g transform="translate(0.000000,512.000000) scale(0.100000,-0.100000)"
fill="#000000" stroke="none">
<path d="M2110 5111 c-121 -38 -197 -153 -188 -282 3 -48 15 -80 56 -158 l51
-99 -105 -148 c-58 -82 -118 -157 -132 -166 -20 -13 -47 -18 -108 -18 l-80 0
-18 58 c-14 43 -30 69 -70 108 -74 72 -95 76 -378 72 -260 -3 -261 -4 -312
-72 -29 -39 -29 -133 0 -172 49 -66 58 -69 265 -72 l189 -3 0 -639 0 -639
-189 -3 c-207 -3 -216 -6 -265 -72 -29 -39 -29 -133 0 -172 51 -68 52 -69 312
-72 275 -4 301 1 372 65 51 46 90 125 90 183 0 17 3 30 8 30 4 -1 68 -33 143
-73 l136 -72 -77 -82 c-329 -346 -569 -786 -657 -1203 -23 -109 -27 -148 -27
-310 0 -173 2 -191 27 -274 135 -437 521 -701 1177 -803 145 -22 574 -25 720
-5 726 102 1164 415 1256 897 35 185 1 483 -82 733 -101 301 -294 631 -524
890 l-81 93 37 41 c50 56 87 143 139 322 74 258 205 857 205 936 0 21 -8 65
-19 99 -53 170 -216 276 -443 288 -54 3 -98 6 -98 7 0 1 48 92 106 201 59 110
113 217 120 239 43 119 -16 268 -130 329 l-41 22 -680 2 c-374 1 -691 -2 -705
-6z m1210 -318 c0 -5 -55 -111 -123 -238 l-122 -230 -274 0 -274 0 -123 230
c-68 127 -124 233 -124 238 0 4 234 7 520 7 286 0 520 -3 520 -7z m-1074 -626
c46 -92 77 -133 117 -154 29 -15 83 -16 593 -14 308 2 582 0 607 -4 26 -4 62
-17 80 -29 40 -28 40 -24 -19 -305 -94 -447 -179 -752 -215 -772 -13 -6 -202
-9 -567 -7 l-547 4 -95 31 c-96 32 -294 128 -492 238 l-108 60 0 352 0 353 99
0 c115 0 194 20 270 70 60 38 99 79 170 182 30 43 58 75 63 72 5 -3 25 -38 44
-77z m274 -1607 c180 -1 201 -2 175 -14 -64 -29 -95 -84 -95 -171 0 -52 -1
-54 -32 -60 -63 -13 -196 -85 -251 -135 -71 -65 -112 -128 -137 -208 -66 -213
45 -433 274 -541 101 -48 151 -60 296 -71 101 -8 123 -13 180 -42 148 -76 146
-181 -4 -258 -65 -33 -75 -35 -165 -35 -88 0 -102 3 -162 32 -43 22 -79 49
-106 81 -70 82 -160 92 -234 25 -50 -45 -66 -98 -48 -162 10 -34 30 -62 83
-116 74 -74 150 -120 247 -150 l57 -18 4 -68 c6 -109 59 -164 158 -164 99 0
152 55 158 165 4 68 5 69 36 75 17 4 68 24 112 46 326 155 392 516 137 749
-59 54 -185 120 -268 140 -27 6 -102 16 -165 20 -101 8 -123 13 -180 42 -148
76 -146 181 4 258 65 33 75 35 165 35 88 0 102 -3 162 -32 43 -22 79 -49 106
-81 70 -82 160 -92 234 -25 50 45 66 98 48 162 -10 34 -30 62 -83 116 -75 74
-150 120 -248 151 l-58 18 0 52 c0 86 -31 142 -95 170 -26 12 -2 13 190 14
l220 0 120 -123 c320 -327 545 -726 616 -1090 68 -351 10 -559 -207 -734 -455
-368 -1530 -392 -2041 -45 -69 47 -168 150 -205 213 -57 97 -72 162 -72 314 0
206 37 374 130 591 117 274 302 543 534 775 l117 117 44 -9 c24 -4 136 -9 249
-9z"/>
</g>
</svg>
